<svg xmlns="http://www.w3.org/2000/svg" xmlns:xlink="http://www.w3.org/1999/xlink" width="500" zoomAndPan="magnify" viewBox="0 0 375 374.999991" height="500" preserveAspectRatio="xMidYMid meet" version="1.0"><defs><clipPath id="id1"><path d="M 37.5 37.5 L 337.5 37.5 L 337.5 337.5 L 37.5 337.5 Z M 37.5 37.5 " clip-rule="nonzero"/></clipPath></defs><g clip-path="url(#id1)"><path fill="#000000" d="M 187.433594 64.546875 C 227.464844 64.546875 232.199219 64.679688 248.039062 65.402344 C 262.632812 66.058594 270.585938 68.492188 275.910156 70.597656 C 282.875 73.289062 287.871094 76.578125 293.132812 81.835938 C 298.390625 87.09375 301.609375 92.089844 304.371094 99.058594 C 306.410156 104.316406 308.839844 112.269531 309.5625 126.929688 C 310.285156 142.769531 310.417969 147.503906 310.417969 187.53125 C 310.417969 227.5625 310.285156 232.296875 309.5625 248.136719 C 308.90625 262.730469 306.472656 270.683594 304.371094 276.007812 C 301.675781 282.976562 298.390625 287.972656 293.132812 293.230469 C 287.871094 298.488281 282.875 301.710938 275.910156 304.46875 C 270.652344 306.507812 262.695312 308.941406 248.039062 309.664062 C 232.199219 310.386719 227.464844 310.515625 187.433594 310.515625 C 147.402344 310.515625 142.671875 310.386719 126.828125 309.664062 C 112.238281 309.003906 104.285156 306.574219 98.960938 304.46875 C 91.992188 301.773438 86.996094 298.488281 81.738281 293.230469 C 76.480469 287.972656 73.257812 282.976562 70.496094 276.007812 C 68.460938 270.75 66.027344 262.796875 65.304688 248.136719 C 64.582031 232.296875 64.449219 227.5625 64.449219 187.53125 C 64.449219 147.503906 64.582031 142.769531 65.304688 126.929688 C 65.960938 112.335938 68.394531 104.382812 70.496094 99.058594 C 73.191406 92.089844 76.480469 87.09375 81.738281 81.835938 C 86.996094 76.578125 91.992188 73.355469 98.960938 70.597656 C 104.21875 68.558594 112.171875 66.125 126.828125 65.402344 C 142.671875 64.679688 147.402344 64.546875 187.433594 64.546875 M 187.433594 37.53125 C 146.679688 37.53125 141.621094 37.730469 125.582031 38.453125 C 109.609375 39.175781 98.695312 41.738281 89.164062 45.421875 C 79.304688 49.234375 70.957031 54.359375 62.609375 62.707031 C 54.328125 71.054688 49.199219 79.402344 45.386719 89.265625 C 41.707031 98.792969 39.144531 109.707031 38.421875 125.679688 C 37.695312 141.652344 37.5 146.777344 37.5 187.46875 C 37.5 228.222656 37.695312 233.28125 38.421875 249.320312 C 39.144531 265.292969 41.707031 276.203125 45.386719 285.734375 C 49.199219 295.597656 54.328125 303.945312 62.675781 312.292969 C 71.023438 320.640625 79.371094 325.765625 89.230469 329.578125 C 98.761719 333.261719 109.671875 335.824219 125.644531 336.546875 C 141.621094 337.269531 146.746094 337.46875 187.5 337.46875 C 228.253906 337.46875 233.316406 337.269531 249.355469 336.546875 C 265.328125 335.824219 276.238281 333.261719 285.769531 329.578125 C 295.628906 325.765625 303.976562 320.640625 312.324219 312.292969 C 320.671875 303.945312 325.800781 295.597656 329.613281 285.734375 C 333.292969 276.203125 335.855469 265.292969 336.578125 249.320312 C 337.304688 233.347656 337.5 228.222656 337.5 187.46875 C 337.5 146.714844 337.304688 141.652344 336.578125 125.613281 C 335.855469 109.640625 333.292969 98.730469 329.613281 89.199219 C 325.800781 79.339844 320.671875 70.992188 312.324219 62.640625 C 303.976562 54.292969 295.628906 49.167969 285.769531 45.355469 C 276.238281 41.675781 265.328125 39.109375 249.355469 38.386719 C 233.316406 37.730469 228.1875 37.53125 187.433594 37.53125 " fill-opacity="1" fill-rule="nonzero"/></g><path fill="#000000" d="M 187.433594 110.496094 C 144.90625 110.496094 110.460938 144.9375 110.460938 187.46875 C 110.460938 229.996094 144.972656 264.503906 187.5 264.503906 C 230.027344 264.503906 264.539062 230.0625 264.539062 187.46875 C 264.472656 144.9375 229.960938 110.496094 187.433594 110.496094 M 187.433594 237.488281 C 159.828125 237.488281 137.476562 215.140625 137.476562 187.53125 C 137.476562 159.925781 159.828125 137.578125 187.433594 137.578125 C 215.042969 137.578125 237.390625 159.925781 237.390625 187.53125 C 237.457031 215.074219 215.042969 237.488281 187.433594 237.488281 " fill-opacity="1" fill-rule="nonzero"/><path fill="#000000" d="M 285.507812 107.472656 C 285.507812 117.398438 277.421875 125.480469 267.496094 125.480469 C 257.570312 125.480469 249.484375 117.398438 249.484375 107.472656 C 249.484375 97.546875 257.570312 89.460938 267.496094 89.460938 C 277.421875 89.460938 285.507812 97.480469 285.507812 107.472656 " fill-opacity="1" fill-rule="nonzero"/></svg>