<svg xmlns="http://www.w3.org/2000/svg" xmlns:xlink="http://www.w3.org/1999/xlink" width="500" zoomAndPan="magnify" viewBox="0 0 375 374.999991" height="500" preserveAspectRatio="xMidYMid meet" version="1.0"><defs><clipPath id="id1"><path d="M 37.5 37.5 L 337.5 37.5 L 337.5 337.5 L 37.5 337.5 Z M 37.5 37.5 " clip-rule="nonzero"/></clipPath></defs><g clip-path="url(#id1)"><path fill="#000000" d="M 262.082031 37.617188 L 112.679688 37.617188 C 71.28125 37.617188 37.5 71.402344 37.5 112.796875 L 37.5 262.441406 C 37.5 303.597656 71.28125 337.382812 112.679688 337.382812 L 262.320312 337.382812 C 303.71875 337.382812 337.5 303.597656 337.5 262.203125 L 337.5 112.796875 C 337.261719 71.402344 303.480469 37.617188 262.082031 37.617188 Z M 137.421875 280.285156 L 94.597656 280.285156 L 94.597656 156.570312 L 137.421875 156.570312 Z M 115.769531 137.539062 C 103.636719 137.539062 93.882812 127.785156 93.882812 115.652344 C 93.882812 103.519531 103.636719 93.765625 115.769531 93.765625 C 127.90625 93.765625 137.660156 103.519531 137.660156 115.652344 C 137.421875 127.785156 127.667969 137.539062 115.769531 137.539062 Z M 280.164062 280.285156 L 244.480469 280.285156 L 244.480469 220.332031 C 244.480469 205.820312 242.574219 187.261719 222.828125 187.261719 C 202.605469 187.261719 199.277344 202.964844 199.277344 219.378906 L 199.277344 280.285156 L 163.589844 280.285156 L 163.589844 156.570312 L 196.898438 156.570312 L 196.898438 173.226562 L 197.847656 173.226562 C 203.082031 163.710938 215.214844 156.335938 234.25 156.335938 C 273.503906 156.335938 280.402344 178.933594 280.402344 212.480469 L 280.402344 280.285156 Z M 280.164062 280.285156 " fill-opacity="1" fill-rule="nonzero"/></g></svg>