<svg xmlns="http://www.w3.org/2000/svg" xmlns:xlink="http://www.w3.org/1999/xlink" width="500" zoomAndPan="magnify" viewBox="0 0 375 374.999991" height="500" preserveAspectRatio="xMidYMid meet" version="1.0"><defs><clipPath id="id1"><path d="M 56.25 37.5 L 318.75 37.5 L 318.75 337.5 L 56.25 337.5 Z M 56.25 37.5 " clip-rule="nonzero"/></clipPath></defs><g clip-path="url(#id1)"><path fill="#000000" d="M 206.25 37.5 L 243.375 37.5 C 246.074219 50.90625 253.5 67.820312 266.53125 84.601562 C 279.28125 101.042969 296.195312 112.5 318.75 112.5 L 318.75 150 C 285.882812 150 261.1875 134.738281 243.75 115.707031 L 243.75 243.75 C 243.75 245.285156 243.710938 246.816406 243.636719 248.351562 C 243.5625 249.882812 243.449219 251.414062 243.296875 252.9375 C 243.148438 254.464844 242.960938 255.988281 242.734375 257.507812 C 242.511719 259.023438 242.246094 260.535156 241.949219 262.039062 C 241.648438 263.542969 241.3125 265.042969 240.941406 266.53125 C 240.566406 268.019531 240.160156 269.496094 239.714844 270.964844 C 239.269531 272.433594 238.785156 273.890625 238.269531 275.332031 C 237.753906 276.777344 237.199219 278.210938 236.613281 279.625 C 236.027344 281.042969 235.40625 282.445312 234.75 283.832031 C 234.09375 285.21875 233.402344 286.589844 232.679688 287.945312 C 231.957031 289.296875 231.199219 290.632812 230.410156 291.945312 C 229.625 293.261719 228.800781 294.558594 227.949219 295.835938 C 227.097656 297.109375 226.214844 298.363281 225.300781 299.597656 C 224.386719 300.828125 223.441406 302.039062 222.46875 303.222656 C 221.496094 304.410156 220.496094 305.570312 219.464844 306.707031 C 218.433594 307.84375 217.375 308.957031 216.292969 310.042969 C 215.207031 311.125 214.09375 312.183594 212.957031 313.214844 C 211.820312 314.246094 210.660156 315.246094 209.472656 316.21875 C 208.289062 317.191406 207.078125 318.136719 205.847656 319.050781 C 204.613281 319.964844 203.359375 320.847656 202.085938 321.699219 C 200.808594 322.550781 199.511719 323.375 198.195312 324.160156 C 196.882812 324.949219 195.546875 325.707031 194.195312 326.429688 C 192.839844 327.152344 191.46875 327.84375 190.082031 328.5 C 188.695312 329.15625 187.292969 329.777344 185.875 330.363281 C 184.460938 330.949219 183.027344 331.503906 181.582031 332.019531 C 180.140625 332.535156 178.683594 333.019531 177.214844 333.464844 C 175.746094 333.910156 174.269531 334.316406 172.78125 334.691406 C 171.292969 335.0625 169.792969 335.398438 168.289062 335.699219 C 166.785156 335.996094 165.273438 336.261719 163.757812 336.484375 C 162.238281 336.710938 160.714844 336.898438 159.1875 337.046875 C 157.664062 337.199219 156.132812 337.3125 154.601562 337.386719 C 153.066406 337.460938 151.535156 337.5 150 337.5 C 148.464844 337.5 146.933594 337.460938 145.398438 337.386719 C 143.867188 337.3125 142.335938 337.199219 140.8125 337.046875 C 139.285156 336.898438 137.761719 336.710938 136.242188 336.484375 C 134.726562 336.261719 133.214844 335.996094 131.710938 335.699219 C 130.207031 335.398438 128.707031 335.0625 127.21875 334.691406 C 125.730469 334.316406 124.253906 333.910156 122.785156 333.464844 C 121.316406 333.019531 119.859375 332.535156 118.417969 332.019531 C 116.972656 331.503906 115.539062 330.949219 114.125 330.363281 C 112.707031 329.777344 111.304688 329.15625 109.917969 328.5 C 108.53125 327.84375 107.160156 327.152344 105.804688 326.429688 C 104.453125 325.707031 103.117188 324.949219 101.804688 324.160156 C 100.488281 323.375 99.191406 322.550781 97.914062 321.699219 C 96.640625 320.847656 95.386719 319.964844 94.152344 319.050781 C 92.921875 318.136719 91.710938 317.191406 90.527344 316.21875 C 89.339844 315.246094 88.179688 314.246094 87.042969 313.214844 C 85.90625 312.183594 84.792969 311.125 83.707031 310.042969 C 82.625 308.957031 81.566406 307.84375 80.535156 306.707031 C 79.503906 305.570312 78.503906 304.410156 77.53125 303.222656 C 76.558594 302.039062 75.613281 300.828125 74.699219 299.597656 C 73.785156 298.363281 72.902344 297.109375 72.050781 295.835938 C 71.199219 294.558594 70.375 293.261719 69.589844 291.945312 C 68.800781 290.632812 68.042969 289.296875 67.320312 287.945312 C 66.597656 286.589844 65.90625 285.21875 65.25 283.832031 C 64.59375 282.445312 63.972656 281.042969 63.386719 279.625 C 62.800781 278.210938 62.246094 276.777344 61.730469 275.332031 C 61.214844 273.890625 60.730469 272.433594 60.285156 270.964844 C 59.839844 269.496094 59.433594 268.019531 59.058594 266.53125 C 58.6875 265.042969 58.351562 263.542969 58.050781 262.039062 C 57.753906 260.535156 57.488281 259.023438 57.265625 257.507812 C 57.039062 255.988281 56.851562 254.464844 56.703125 252.9375 C 56.550781 251.414062 56.4375 249.882812 56.363281 248.351562 C 56.289062 246.816406 56.25 245.285156 56.25 243.75 C 56.25 242.214844 56.289062 240.683594 56.363281 239.148438 C 56.4375 237.617188 56.550781 236.085938 56.703125 234.5625 C 56.851562 233.035156 57.039062 231.511719 57.265625 229.992188 C 57.488281 228.476562 57.753906 226.964844 58.050781 225.460938 C 58.351562 223.957031 58.6875 222.457031 59.058594 220.96875 C 59.433594 219.480469 59.839844 218.003906 60.285156 216.535156 C 60.730469 215.066406 61.214844 213.609375 61.730469 212.167969 C 62.246094 210.722656 62.800781 209.289062 63.386719 207.875 C 63.972656 206.457031 64.59375 205.054688 65.25 203.667969 C 65.90625 202.28125 66.597656 200.910156 67.320312 199.554688 C 68.042969 198.203125 68.800781 196.867188 69.589844 195.554688 C 70.375 194.238281 71.199219 192.941406 72.050781 191.664062 C 72.902344 190.390625 73.785156 189.136719 74.699219 187.902344 C 75.613281 186.671875 76.558594 185.460938 77.53125 184.277344 C 78.503906 183.089844 79.503906 181.929688 80.535156 180.792969 C 81.566406 179.65625 82.625 178.542969 83.707031 177.457031 C 84.792969 176.375 85.90625 175.316406 87.042969 174.285156 C 88.179688 173.253906 89.339844 172.253906 90.527344 171.28125 C 91.710938 170.308594 92.921875 169.363281 94.152344 168.449219 C 95.386719 167.535156 96.640625 166.652344 97.914062 165.800781 C 99.191406 164.949219 100.488281 164.125 101.804688 163.339844 C 103.117188 162.550781 104.453125 161.792969 105.804688 161.070312 C 107.160156 160.347656 108.53125 159.65625 109.917969 159 C 111.304688 158.34375 112.707031 157.722656 114.125 157.136719 C 115.539062 156.550781 116.972656 155.996094 118.417969 155.480469 C 119.859375 154.964844 121.316406 154.480469 122.785156 154.035156 C 124.253906 153.589844 125.730469 153.183594 127.21875 152.808594 C 128.707031 152.4375 130.207031 152.101562 131.710938 151.800781 C 133.214844 151.503906 134.726562 151.238281 136.242188 151.015625 C 137.761719 150.789062 139.285156 150.601562 140.8125 150.453125 C 142.335938 150.300781 143.867188 150.1875 145.398438 150.113281 C 146.933594 150.039062 148.464844 150 150 150 L 150 187.5 C 148.15625 187.5 146.320312 187.589844 144.488281 187.769531 C 142.652344 187.953125 140.832031 188.222656 139.027344 188.582031 C 137.21875 188.941406 135.433594 189.386719 133.671875 189.921875 C 131.910156 190.457031 130.175781 191.078125 128.472656 191.78125 C 126.773438 192.488281 125.109375 193.273438 123.484375 194.140625 C 121.859375 195.011719 120.28125 195.957031 118.75 196.980469 C 117.21875 198.003906 115.738281 199.097656 114.316406 200.269531 C 112.890625 201.4375 111.527344 202.671875 110.226562 203.976562 C 108.921875 205.277344 107.6875 206.640625 106.519531 208.066406 C 105.347656 209.488281 104.253906 210.96875 103.230469 212.5 C 102.207031 214.03125 101.261719 215.609375 100.390625 217.234375 C 99.523438 218.859375 98.738281 220.523438 98.03125 222.222656 C 97.328125 223.925781 96.707031 225.660156 96.171875 227.421875 C 95.636719 229.183594 95.191406 230.96875 94.832031 232.777344 C 94.472656 234.582031 94.203125 236.402344 94.019531 238.238281 C 93.839844 240.070312 93.75 241.90625 93.75 243.75 C 93.75 245.59375 93.839844 247.429688 94.019531 249.261719 C 94.203125 251.097656 94.472656 252.917969 94.832031 254.722656 C 95.191406 256.53125 95.636719 258.316406 96.171875 260.078125 C 96.707031 261.839844 97.328125 263.574219 98.03125 265.277344 C 98.738281 266.976562 99.523438 268.640625 100.390625 270.265625 C 101.261719 271.890625 102.207031 273.46875 103.230469 275 C 104.253906 276.53125 105.347656 278.011719 106.519531 279.433594 C 107.6875 280.859375 108.921875 282.222656 110.226562 283.523438 C 111.527344 284.828125 112.890625 286.0625 114.316406 287.230469 C 115.738281 288.402344 117.21875 289.496094 118.75 290.519531 C 120.28125 291.542969 121.859375 292.488281 123.484375 293.359375 C 125.109375 294.226562 126.773438 295.011719 128.472656 295.71875 C 130.175781 296.421875 131.910156 297.042969 133.671875 297.578125 C 135.433594 298.113281 137.21875 298.558594 139.027344 298.917969 C 140.832031 299.277344 142.652344 299.546875 144.488281 299.730469 C 146.320312 299.910156 148.15625 300 150 300 C 151.84375 300 153.679688 299.910156 155.511719 299.730469 C 157.347656 299.546875 159.167969 299.277344 160.972656 298.917969 C 162.78125 298.558594 164.566406 298.113281 166.328125 297.578125 C 168.089844 297.042969 169.824219 296.421875 171.527344 295.71875 C 173.226562 295.011719 174.890625 294.226562 176.515625 293.359375 C 178.140625 292.488281 179.71875 291.542969 181.25 290.519531 C 182.78125 289.496094 184.261719 288.402344 185.683594 287.230469 C 187.109375 286.0625 188.472656 284.828125 189.773438 283.523438 C 191.078125 282.222656 192.3125 280.859375 193.480469 279.433594 C 194.652344 278.011719 195.746094 276.53125 196.769531 275 C 197.792969 273.46875 198.738281 271.890625 199.609375 270.265625 C 200.476562 268.640625 201.261719 266.976562 201.96875 265.277344 C 202.671875 263.574219 203.292969 261.839844 203.828125 260.078125 C 204.363281 258.316406 204.808594 256.53125 205.167969 254.722656 C 205.527344 252.917969 205.796875 251.097656 205.980469 249.261719 C 206.160156 247.429688 206.25 245.59375 206.25 243.75 Z M 206.25 37.5 " fill-opacity="1" fill-rule="nonzero"/></g></svg>