<svg xmlns="http://www.w3.org/2000/svg" xmlns:xlink="http://www.w3.org/1999/xlink" width="500" zoomAndPan="magnify" viewBox="0 0 375 374.999991" height="500" preserveAspectRatio="xMidYMid meet" version="1.0"><defs><clipPath id="id1"><path d="M 37.5 82.6875 L 337.5 82.6875 L 337.5 292.6875 L 37.5 292.6875 Z M 37.5 82.6875 " clip-rule="nonzero"/></clipPath></defs><g clip-path="url(#id1)"><path fill="#000000" d="M 230.554688 191.6875 L 163.121094 228.738281 C 160.191406 230.324219 157.554688 228.199219 157.554688 224.863281 L 157.554688 148.808594 C 157.554688 145.429688 160.273438 143.308594 163.210938 144.980469 L 231.105469 183.976562 C 234.105469 185.695312 233.59375 190.035156 230.554688 191.691406 Z M 337.230469 147.996094 C 337.230469 111.925781 308.046875 82.6875 272.046875 82.6875 L 102.960938 82.6875 C 66.960938 82.6875 37.769531 111.925781 37.769531 147.996094 L 37.769531 227.378906 C 37.769531 263.449219 66.960938 292.6875 102.960938 292.6875 L 272.046875 292.6875 C 308.046875 292.6875 337.230469 263.449219 337.230469 227.378906 Z M 337.230469 147.996094 " fill-opacity="1" fill-rule="evenodd"/></g></svg>